<svg width="600" height="600" xmlns="http://www.w3.org/2000/svg">
 <!-- Created with Method Draw - http://github.com/duopixel/Method-Draw/ -->
 <defs>
  <filter height="200%" width="200%" y="-50%" x="-50%" id="svg_6_blur">
   <feGaussianBlur stdDeviation="4.5" in="SourceGraphic"/>
  </filter>
  <filter height="200%" width="200%" y="-50%" x="-50%" id="svg_1_blur">
   <feGaussianBlur stdDeviation="5.4" in="SourceGraphic"/>
  </filter>
 </defs>
 <g>
  <title>background</title>
  <rect fill="#ffffff" id="canvas_background" height="602" width="602" y="-1" x="-1"/>
 </g>
 <g>
  <title>Layer 1</title>
  <path filter="url(#svg_1_blur)" stroke="null" id="svg_1" d="m441.05202,526.48443c-18.71077,-11.69193 15.63684,-11.79275 23.51707,-12.59632c20.46577,-0.45076 23.23935,-29.32028 21.13511,-47.69654c-2.99374,-7.53191 -0.06485,-23.88262 -10.6095,-21.44008c-21.06863,-1.1485 -41.90961,-7.311 -60.2414,-19.60036c-1.12505,20.65661 -9.96085,39.55627 -15.83701,59.09307c-7.72815,9.8895 19.6459,45.19587 0.59195,29.42324c-12.34222,-13.48346 0.08906,14.02567 -15.23504,6.28044c-20.79469,-0.5041 -42.33889,3.86112 -62.65338,-1.99725c-6.82684,-3.3648 -28.20103,0.83198 -12.63013,-10.41194c8.84339,-1.89517 16.58943,7.18407 23.27279,-3.2677c15.82268,7.68661 41.00548,7.73941 46.75061,-16.48485c9.56057,-18.33412 15.41835,-38.88853 15.77535,-60.42625c-11.19588,-10.13216 -20.06419,-23.23289 -25.15616,-38.823c-11.77491,-22.80705 -33.26341,-35.31372 -50.88056,-51.11304c-23.3752,-17.88732 -50.28984,-38.4841 -54.86959,-73.76538c-5.56814,-26.17287 0.03024,-54.83364 15.82137,-74.68415c10.64985,-17.91091 30.4495,-34.55757 25.91843,-59.14717c-11.51308,-24.06838 -36.40977,3.1146 -47.71587,14.80781c-13.61907,11.32428 -28.27314,38.75834 -46.86553,26.45225c-2.34335,-18.62842 18.70015,-30.31842 23.8784,-47.69613c10.72399,-19.56094 17.07221,-42.29596 25.86689,-62.42652c15.90772,-17.4008 42.21021,-17.50739 57.93091,0.45743c20.06124,18.35522 32.57148,47.3732 30.60709,77.53755c1.9341,20.8296 -5.6537,47.97059 11.26443,62.43123c24.45499,15.97355 53.28815,19.80555 78.14511,35.11539c31.08602,16.86606 54.40685,47.30178 80.56888,72.34916c16.09779,17.18594 32.64711,33.86431 47.95165,52.02943c-10.23085,-3.59643 -19.69243,-9.71564 -29.4866,-14.68549c12.67494,19.37171 18.37007,43.20277 21.37125,67.01052c4.93431,25.2333 18.74075,49.90152 11.81405,76.61351c-6.04033,22.21275 -25.28449,-13.71199 -34.69441,-19.99958c-10.75534,-11.91298 -21.39493,-26.66186 -36.98708,-28.71792c-2.8138,21.41984 -5.70546,43.70193 -2.5043,65.15812c1.87609,19.00217 34.14524,7.59905 29.47021,21.66692c-27.03265,-3.46629 -54.17394,-0.54505 -81.27219,-0.96008l-4.01278,-0.48633l0,0l-0.00004,0.00002z" stroke-opacity="null" stroke-width="1.5" fill="#000000"/>
  <path filter="url(#svg_6_blur)" transform="rotate(2 145.34249877929736,424.3248901367186) " stroke="null" id="svg_6" d="m261.34249,341.67927c-6.49174,-12.57531 -20.02184,-10.30582 -30.09206,-13.16235c-8.36154,-4.20518 -21.16759,-8.23646 -27.11692,3.79159c-7.93937,11.22617 -14.98607,23.33133 -21.25707,35.98066c-13.15124,17.48305 -29.12053,31.50175 -45.17289,44.7287c-13.5219,8.05995 -28.32518,14.34555 -39.27135,27.47806c-20.78614,16.17779 -46.10711,19.1272 -69.08971,28.61106c4.07374,1.71852 22.10923,-4.52748 9.9859,2.31211c-9.01948,3.60396 3.5498,6.95329 7.56344,4.54884c-3.16904,4.11133 -4.04077,4.44752 -0.1434,4.38566c-7.08043,4.80034 15.72317,-1.49088 3.16625,5.22741c-5.46694,1.93978 -18.90962,19.8342 -6.58334,11.77265c11.46016,-5.78627 23.67637,-8.69679 35.59788,-12.6735c-8.91644,11.12133 -21.62295,18.07617 -27.75119,32.17758c0.13929,3.63976 9.48581,-7.39557 13.43782,-9.20329c22.4736,-16.4784 46.02064,-31.75047 71.33751,-40.6474c3.45734,1.01041 4.13344,12.24301 10.87208,6.50047c0.59151,7.15736 15.39276,-11.22712 11.52737,3.11141c6.41034,-12.2773 -0.0115,13.32874 5.92206,17.20531c3.02812,4.85266 15.46351,11.55097 5.32669,13.21386c-4.48033,8.13313 6.28111,-3.26254 8.63102,4.3569c8.7818,3.86976 2.38493,7.83719 -3.97177,5.49396c-4.87178,-0.78929 -5.87694,6.97822 -0.95262,2.15838c5.88026,4.89108 15.2192,3.13435 22.7175,5.23709c7.49335,0.75404 16.57653,-9.30883 19.41655,-6.86965c-6.90685,-6.01334 -16.90522,1.32902 -24.4859,-3.31256c-1.59882,-6.24019 17.76934,2.23335 17.80853,-8.31446c9.07241,-1.02433 -7.62987,-2.44595 -10.87086,0.04246c-11.16289,0.72412 -16.89007,-11.86606 -24.74859,-19.01458c0.23799,-14.83698 9.20794,-27.58321 18.59596,-35.96187c12.24833,-8.94802 24.8149,-20.47311 28.28379,-38.33185c3.59621,-15.90477 5.59872,-32.29389 7.23361,-48.60377c2.21172,-10.52344 8.56905,-20.24161 18.32054,-19.45655c5.25895,-0.88918 10.53705,-1.62754 15.76319,-2.78236l0.00001,0.00002z" stroke-opacity="null" stroke-width="1.5" fill="#0e0f0f"/>
  <path id="svg_7" d="m306.41203,101.32512c-91.9597,0 -166.49998,76.55939 -166.49998,171.00004c0,94.4455 74.54027,170.99996 166.49998,170.99996c91.9554,0 166.50003,-76.55446 166.50003,-170.99996c0,-94.44065 -74.54462,-171.00004 -166.50003,-171.00004zm15.21248,269.48912l-31.01038,0l0,-30.54206l31.01038,0l0,30.54206zm0,-63.15333l0,10.09391l-31.01038,0l0,-12.43703c0,-37.53011 41.58558,-43.48577 41.58558,-70.15973c0,-12.16279 -10.58858,-21.47982 -24.45066,-21.47982c-14.36445,0 -26.96326,10.87015 -26.96326,10.87015l-17.65511,-22.53089c0,0 17.40172,-18.63923 47.39332,-18.63923c28.48899,0 54.94096,18.11874 54.94096,48.66528c0.01329,42.73212 -43.84045,47.66013 -43.84045,75.61735l0,0.00001z" stroke-width="10.5" stroke="#007fff" fill="none"/>
  <path id="svg_8" d="m749.61707,416.74011c-0.27615,0 -0.49999,0.22386 -0.49999,0.50001c0,0.27616 0.22384,0.50001 0.49999,0.50001c0.27614,0 0.49999,-0.22385 0.49999,-0.50001c0,-0.27615 -0.22386,-0.50001 -0.49999,-0.50001zm0.04568,0.78799l-0.09312,0l0,-0.08931l0.09312,0l0,0.08931zm0,-0.18466l0,0.02951l-0.09312,0l0,-0.03637c0,-0.10974 0.12488,-0.12715 0.12488,-0.20515c0,-0.03556 -0.0318,-0.06281 -0.07342,-0.06281c-0.04314,0 -0.08097,0.03178 -0.08097,0.03178l-0.05302,-0.06588c0,0 0.05226,-0.0545 0.14232,-0.0545c0.08555,0 0.16499,0.05298 0.16499,0.1423c0.00004,0.12495 -0.13165,0.13936 -0.13165,0.22111l0,0z" stroke-width="1.5" stroke="#000000" fill="none"/>
 </g>
</svg>