<svg width="800" height="600" xmlns="http://www.w3.org/2000/svg">
 <!-- Created with Method Draw - http://github.com/duopixel/Method-Draw/ -->
 <g>
  <title>background</title>
  <rect fill="none" id="canvas_background" height="602" width="802" y="-1" x="-1"/>
  <g display="none" overflow="visible" y="0" x="0" height="100%" width="100%" id="canvasGrid">
   <rect fill="url(#gridpattern)" stroke-width="0" y="0" x="0" height="100%" width="100%"/>
  </g>
 </g>
 <g>
  <title>Layer 1</title>
  <path id="svg_1" d="m578.44432,279.25008c0,0 57.66149,14.90177 71.35637,66.41869c0,0 12.25292,20.01088 8.6492,30.6549c-3.60372,10.64379 -9.37018,14.04994 -10.81155,15.32734c0,0 7.20783,-9.79266 -17.29841,-25.54579c0,0 -12.61361,-2.55456 -15.13625,-5.10911c-2.52264,-2.55456 -39.6423,-11.06982 -47.57092,10.21822c-7.92842,21.28828 -9.73028,57.05206 -8.6492,58.75502c1.08108,1.70296 37.84044,34.06106 41.08387,43.42769c3.24343,9.36663 20.54203,28.52568 28.11016,28.10012c7.56793,-0.42557 25.58732,-0.42557 30.27231,-7.66367c4.6848,-7.2381 18.37968,-8.08947 21.62311,0c3.24343,8.08923 2.16235,7.66367 2.16235,7.66367c0,0 11.53234,-2.98012 15.13625,7.66367c3.60372,10.64402 -5.40597,15.32734 -6.48705,15.32734c-1.08108,0 6.84734,-16.17893 -4.3247,-12.77278c0,0 -6.48685,0.31941 -6.48685,-2.55456c0,-2.87396 3.78406,15.00816 0,15.32734c0,0 -12.70368,-16.6045 -15.13625,-7.66367c0,0 -8.10857,1.91598 -10.81155,2.55456c-2.70279,0.63858 -2.16235,2.55456 -2.16235,2.55456c0,0 -7.02749,3.19314 -2.16215,12.77278c0,0 0,3.51254 -2.16235,5.10934c-2.16235,1.59657 1.35149,9.26024 10.81155,2.55456c0,0 2.43257,-2.55456 2.16235,0c-0.27042,2.55456 -9.73048,16.28532 -21.62311,-2.55456c0,0 -4.3247,-14.36958 2.16235,-17.88212c6.48685,-3.51254 -2.16235,-10.53763 -10.81155,-5.10911c0,0 -0.54064,10.21822 2.16215,12.77278c2.70299,2.55456 -4.59492,0.31941 -6.48685,-2.55456c-1.89193,-2.87373 -4.3247,6.0671 -4.3247,7.66367c0,1.59657 -2.43257,7.02509 -4.3245,5.10934c-1.89213,-1.91598 -19.73117,-4.15136 -19.46095,-2.55479c0.27042,1.5968 -8.37879,8.30248 -10.81155,5.10934c-2.43257,-3.19337 -15.94691,-19.47869 -17.29841,-17.88212c-1.35149,1.59657 9.18984,19.47869 15.13625,22.99124c5.94622,3.51231 30.81295,5.74769 38.92152,-2.55456c0,0 12.43327,-2.87396 12.9739,0c0,0 14.05498,6.70568 12.9739,10.21822c-1.08127,3.51254 -1.08127,1.59657 -2.16235,0c-1.08108,-1.5968 -10.0007,-7.34449 -10.81155,-5.10911c-0.81086,2.23515 0,2.55456 0,2.55456c0,0 11.35219,3.83172 10.81155,5.10911c0,0 13.24412,6.38627 10.81155,20.43645c0,0 -4.05428,3.51254 -4.3247,0c-0.27022,-3.51254 1.62171,-13.09219 -6.48685,-12.77278c0,0 -1.35149,5.10911 -6.48685,2.55456c-5.13556,-2.55456 2.97301,-7.98307 -23.78546,-5.10911c0,0 1.08108,6.0671 4.3245,7.66367c3.24343,1.59657 8.6494,1.59657 8.6494,7.66367c0,0 3.51365,5.10911 0,10.21822c0,0 -2.16235,1.59657 -2.16235,0c0,-1.59657 2.16235,-9.26024 -8.6492,-12.77278c-10.81175,-3.51254 -8.6494,-2.55456 -8.6494,-2.55456c0,0 1.89213,15.32734 -2.16235,15.32734c-4.05428,0 2.70299,9.57964 10.81175,5.10911c0,0 0.81066,-3.83172 2.16215,-2.55456c1.35149,1.27739 -6.75707,19.79787 -21.62311,-2.55456c0,0 -4.86514,-11.81479 0,-15.32734c0,0 3.24343,-11.81479 -12.9739,-7.66367c0,0 -6.75707,1.27716 -6.48685,0c0.27022,-1.27739 -1.08108,6.0671 0,7.66367c1.08108,1.59657 -12.70368,-3.51254 -12.9739,-5.10911l-4.3245,0c0,0 2.52264,14.90177 4.3245,15.32734c1.80186,0.42557 -8.28871,-7.2381 -10.81155,-12.77278c0,0 0,10.64379 2.16235,12.77278c2.16235,2.12899 -9.73048,-11.49562 -8.6492,-12.77278c0,0 0.36029,13.62438 4.3245,20.43645c3.96421,6.81207 -8.6492,-6.38627 -10.81155,-10.21822c0,0 -2.16215,1.70296 0,5.10911c2.16235,3.40615 -7.20764,-3.40615 -8.6492,-12.77278c0,0 -6.12656,-5.96071 -8.6492,-7.66367c0,0 0.36029,14.47574 2.16235,15.32734c0,0 -5.04548,-4.68355 -6.48705,-10.21822c0,0 -2.88294,5.10911 -2.16235,7.66367c0,0 -8.28871,-11.06982 -10.81155,-20.43645c-2.52264,-9.36663 -2.16215,2.55456 -2.16215,2.55456c0,0 -5.04548,-0.85183 -8.6494,-17.88189c0,0 -20.90232,25.97113 -28.10996,28.10012c-7.20764,2.12876 8.6492,-10.21822 8.6492,-10.21822c0,0 -11.89263,4.25752 -12.9739,7.66367c0,0 1.08127,-4.68355 6.48705,-10.21822c5.40578,-5.53491 -6.48705,-2.55456 -6.48705,-2.55456c0,0 -2.52264,-0.85183 -2.16215,-28.10035c0,0 -16.21753,20.43668 -25.94781,20.43668c-9.73048,0 9.00969,-8.5155 10.81155,-15.32757c1.80186,-6.81207 -3.96421,-4.68331 -6.48705,-2.55456c-2.52264,2.12899 -21.26262,14.90177 -21.62311,17.88212c-0.36029,2.98012 -2.16215,-5.10911 -2.16215,-5.10911c0,0 -4.3247,2.55456 -8.6494,2.55456c-4.3245,0 12.61341,-9.36663 15.13625,-15.32757c2.52284,-5.96071 -23.42497,10.64402 -32.43466,17.88212c0,0 -7.56813,2.98012 -8.6492,0c-1.08127,-2.98035 12.9739,-14.47574 12.9739,-15.32757c0,-0.8516 5.04529,-8.08923 -4.3247,-2.55456c-9.36999,5.53491 -21.62311,1.27739 -30.27231,5.10911c-8.6494,3.83195 -18.01919,15.75313 -30.27251,15.32757c-12.25312,-0.4258 -12.25017,17.88189 -34.59682,17.88189c-12.9739,0 -7.56813,5.96071 -12.9739,5.10911c-5.40578,-0.8516 6.48685,-7.66367 6.48685,-7.66367c0,0 -12.9739,5.10911 -15.13606,5.10911c-2.16235,0 -11.89283,0.42557 10.81136,-10.21822c0,0 -16.57762,0 -10.81136,-2.55456c5.76607,-2.55456 20.18154,-7.66367 19.46076,-10.21822c-0.72098,-2.55456 -15.49655,-2.12899 -10.81155,-5.10911c4.6848,-2.98035 30.27231,-14.05017 23.78546,-15.32757c-6.48705,-1.27716 -15.85704,-1.70296 -10.81155,-5.10911c5.04548,-3.40615 67.03148,-11.49539 75.68088,-20.43645c8.6492,-8.94106 30.9931,-34.91219 36.75917,-35.76378c5.76627,-0.85183 0,-7.2381 -4.3245,-5.10934c-4.3247,2.12899 -8.28891,-1.27716 -6.48705,-15.32734c1.80206,-14.04994 -18.54645,30.81008 -30.27231,15.32734c-6.12656,-8.08923 -1.44157,-14.04994 -8.6492,-12.77278c-7.20764,1.27739 -6.84734,-9.36663 -8.6492,-5.10911c-1.80186,4.25752 -16.93811,30.6549 -23.78546,28.10035c-6.84734,-2.55456 -1.80186,-4.25752 -6.48705,-5.10911c-4.68499,-0.85183 -7.92842,-2.55456 -8.6492,-7.6639c-0.72078,-5.10911 -5.04529,3.40638 -6.48685,-5.10911c-1.44157,-8.51526 -2.52264,-19.15905 -8.6492,-10.21822c-6.12676,8.94106 -8.28911,2.98035 -8.6494,0c-0.36029,-2.98012 -13.3342,1.70296 -12.97371,-7.66367c0.3601,-9.36663 -12.61361,2.98035 -10.81175,-7.66367c1.80206,-10.64379 -10.96004,-1.44256 -8.6492,-10.21822c5.04548,-19.15929 -17.29841,-1.70296 -15.13606,-10.21822c2.16215,-8.51526 -10.45126,-1.70296 -8.6494,-10.21822c1.80206,-8.51526 -11.99903,-5.55768 -10.81155,-12.77278c2.52264,-15.32757 -12.97371,-4.68355 -10.81155,-17.88212c2.16235,-13.19835 -9.84022,-0.0885 -8.6492,-10.21822c1.80206,-15.32734 -15.44541,-9.7613 -10.81155,-20.43645c7.20783,-16.60473 -7.41138,-9.46675 -4.3247,-17.88189c4.68499,-12.77278 -30.10121,1.417 -21.62311,-20.43668c3.96441,-10.21822 -23.54415,-17.02147 -10.81155,-25.54556c21.62311,-14.47574 -33.15525,-7.2381 -6.48685,-30.65467c24.86653,-13.62438 26.39031,-14.90758 -4.3247,-12.77278c-12.25312,0.8516 -30.6328,-19.15929 -12.97371,-20.43668c17.6589,-1.27716 53.69728,-11.49539 12.97371,-15.32734c-40.72338,-3.83172 -42.16494,-21.28804 -25.94761,-20.43645c16.21733,0.8516 79.64509,0.8516 62.70697,-5.10911c-16.93811,-5.96071 -94.45507,-20.52797 -64.86932,-35.76378c14.05498,-7.2381 113.09219,31.24656 84.33008,5.10911c-4.6848,-4.25752 -50.45385,-19.58508 -67.03167,-40.87313c-16.57762,-21.28804 -13.3342,-24.2684 -4.3245,-20.43645c9.00969,3.83172 113.52073,60.03218 97.30399,40.8729c-2.88313,-3.40615 -62.70697,-37.04118 -71.35637,-66.41846c-8.6492,-29.37751 -0.36029,-21.71384 6.48705,-12.77301c6.84715,8.94106 105.18776,94.32205 88.65478,66.41869c-5.04548,-8.51526 -49.01229,-42.57586 -58.38247,-76.63691c-9.37018,-34.06082 -2.16235,-24.69396 4.3247,-15.32734c6.48685,9.36663 106.69364,136.98061 90.81694,91.96425c-3.60372,-10.21822 -35.3178,-42.15029 -38.92152,-71.5278c-3.60372,-29.37751 5.76607,-18.30746 10.81155,-7.66367c5.04548,10.64402 76.04137,143.0556 77.84323,120.0646c0,0 0.36049,0.42557 2.16235,0c1.80186,-0.4258 -1.44157,-12.34721 2.16235,-10.21822c0,0 1.44157,-9.36663 4.3245,-7.6639c2.88313,1.70296 5.76627,0.4258 6.48705,-10.21822c0.72059,-10.64379 21.9834,1.70296 28.10996,56.20047c0,0 4.3247,5.52794 4.3247,17.88189c0,6.38651 25.94761,37.46698 41.08387,35.76402c15.13625,-1.70296 36.75936,35.76378 43.24622,38.31834c6.48685,2.55456 20.90232,17.88189 43.24622,2.55456c22.34389,-15.32734 44.32749,-20.43645 25.94781,-22.991c-18.37968,-2.55456 -14.77576,-11.06982 -6.48685,-12.77278c8.28871,-1.70296 44.32729,-2.55456 32.43466,-10.21822c-11.89283,-7.6639 -22.1661,-48.60904 -6.48705,-38.31857c6.48705,4.25752 29.52459,42.09036 25.94781,15.32734c-1.08127,-8.08923 -15.13625,-17.88189 -10.81155,-45.98201c4.3245,-28.10035 10.32048,-5.74467 10.81155,-2.55456c0.72078,4.68331 18.20406,62.82995 21.62311,33.20923c1.08108,-9.36663 -7.92842,-21.71384 -4.3247,-56.20047c3.60372,-34.48639 8.6492,0 8.6492,0c0,0 10.28252,35.31662 8.6494,53.64591c-0.72098,8.08947 9.36999,5.10911 8.6492,-10.21822c-0.72098,-15.32734 -6.12656,-48.96236 -2.16235,-48.5368c3.96441,0.4258 15.84209,22.80168 12.9739,40.87313c-1.08127,6.81207 15.49655,13.62438 -2.16235,28.10012c-17.6587,14.47574 -36.75936,43.42769 -36.75936,43.42769c0,0 4.27239,18.71096 -17.29841,28.10012c-13.69469,5.96071 -2.16235,17.88189 -2.16235,17.88189z" stroke-width="1.5" fill="#3498db"/>
 </g>
</svg>